<svg xmlns="http://www.w3.org/2000/svg" height="40px" viewBox="0 -960 960 960" width="40px" fill="#FFFFFF"><path d="M371.33-525.33Q326.67-570 326.67-634t44.66-108.67Q416-787.33 480-787.33t108.67 44.66Q633.33-698 633.33-634t-44.66 108.67Q544-480.67 480-480.67t-108.67-44.66ZM160-160v-100q0-34.67 17.67-63.17 17.66-28.5 49-42.83 60-28 123.5-44.33 63.5-16.34 129.83-16.34 66.33 0 129.5 16.67t123.17 44Q764-351.67 782-323.17T800-260v100H160Zm381.5-412.5q25.17-25.17 25.17-61.5t-25.17-61.5q-25.17-25.17-61.5-25.17t-61.5 25.17q-25.17 25.17-25.17 61.5t25.17 61.5q25.17 25.17 61.5 25.17t61.5-25.17ZM640-332.67v106h93.33V-260q0-15-7.66-27-7.67-12-21-19-16-8-32.17-14.5T640-332.67ZM386.67-351v57.67h186.66V-351Q550-355.67 527-357.83 504-360 480-360t-47 2.17q-23 2.16-46.33 6.83Zm-160 124.33H320v-106.66q-16.33 5.66-32.83 12.5-16.5 6.83-32.5 14.83-13.34 7-20.67 19-7.33 12-7.33 27v33.33Zm413.33 0H320h320ZM480-634Z"/></svg>